<svg width="350" height="220" viewBox="0 0 350 220" fill="none" xmlns="http://www.w3.org/2000/svg">
<rect width="350" height="220" rx="32" fill="#0f1020"/>
<g>
  <circle cx="85" cy="110" r="50" fill="#1e90ff" fill-opacity="0.18"/>
  <rect x="60" y="130" width="50" height="30" rx="6" fill="#fff"/>
  <rect x="70" y="140" width="10" height="10" rx="2" fill="#1e90ff"/>
  <rect x="90" y="135" width="8" height="15" rx="2" fill="#ff2d2d"/>
  <rect x="105" y="143" width="6" height="7" rx="2" fill="#1e90ff"/>
  <ellipse cx="230" cy="95" rx="70" ry="55" fill="#1e90ff" fill-opacity="0.13"/>
  <rect x="200" y="120" width="70" height="40" rx="10" fill="#fff"/>
  <rect x="215" y="145" width="10" height="15" rx="2" fill="#ff2d2d"/>
  <rect x="235" y="135" width="8" height="25" rx="2" fill="#1e90ff"/>
  <rect x="255" y="130" width="6" height="30" rx="2" fill="#ff2d2d"/>
  <rect x="270" y="140" width="7" height="20" rx="2" fill="#1e90ff"/>
  <circle cx="175" cy="70" r="18" fill="#ff2d2d" fill-opacity="0.7"/>
  <rect x="165" y="60" width="20" height="20" rx="5" fill="#fff"/>
  <rect x="170" y="65" width="10" height="10" rx="2" fill="#1e90ff"/>
</g>
</svg>
